<?xml version="1.0" standalone="no"?>
<!DOCTYPE svg PUBLIC "-//W3C//DTD SVG 20010904//EN"
 "http://www.w3.org/TR/2001/REC-SVG-20010904/DTD/svg10.dtd">
<svg version="1.0" xmlns="http://www.w3.org/2000/svg"
 width="512.000000pt" height="512.000000pt" viewBox="0 0 512.000000 512.000000"
 preserveAspectRatio="xMidYMid meet">

<g transform="translate(0.000000,512.000000) scale(0.100000,-0.100000)"
fill="#000000" stroke="none">
<path d="M1519 5102 c-212 -56 -351 -242 -377 -510 l-7 -65 -100 -34 c-62 -20
-107 -41 -119 -55 -36 -45 -131 -215 -183 -330 -163 -360 -287 -883 -348
-1470 -19 -187 -19 -211 3 -236 30 -36 67 -38 100 -5 25 25 30 38 36 108 44
514 142 1005 267 1348 50 137 160 370 169 360 4 -4 62 -157 128 -339 l122
-332 0 -716 0 -716 -165 -787 c-91 -434 -168 -796 -171 -805 -5 -16 -22 -18
-179 -18 l-174 0 -5 33 c-17 107 -29 481 -31 949 -2 504 -3 539 -20 558 -26
28 -76 26 -105 -5 -23 -24 -23 -26 -28 -367 -7 -489 22 -1186 51 -1248 7 -13
27 -35 46 -47 33 -22 41 -23 260 -23 247 0 274 5 307 60 9 14 60 234 114 490
l98 465 1 -460 c1 -443 2 -461 21 -493 27 -44 74 -62 160 -62 l70 0 0 -120 c0
-139 12 -179 62 -210 33 -20 48 -20 1036 -20 1107 0 1042 -4 1082 63 17 27 20
51 20 160 l0 127 75 0 c84 0 121 14 154 56 21 26 21 35 21 492 0 256 2 463 4
461 2 -2 48 -211 101 -464 53 -252 100 -466 105 -475 4 -8 20 -26 35 -40 l27
-25 236 -3 c221 -2 239 -1 269 17 68 43 72 64 94 566 13 305 7 1081 -10 1320
-57 762 -160 1303 -333 1740 -46 117 -153 326 -206 405 -36 54 -39 56 -139 90
l-102 35 -6 55 c-19 171 -75 306 -162 393 -125 125 -288 171 -463 131 -121
-27 -159 -58 -492 -397 l-307 -312 -98 100 c-444 455 -525 533 -581 563 -116
62 -237 77 -363 44z m276 -168 c48 -24 104 -76 321 -299 144 -148 262 -270
261 -272 -5 -5 -169 28 -223 46 -153 48 -312 133 -433 231 -35 27 -71 50 -80
50 -9 0 -90 -25 -181 -55 -90 -30 -165 -53 -167 -51 -8 7 28 142 51 191 42 91
107 148 209 181 65 22 173 12 242 -22z m1828 2 c66 -32 130 -99 162 -169 24
-54 53 -172 44 -182 -3 -2 -79 20 -169 50 -91 30 -169 55 -176 55 -6 0 -53
-31 -105 -69 -103 -78 -247 -156 -357 -195 -73 -26 -263 -69 -270 -61 -9 8
505 527 546 552 102 60 222 67 325 19z m-1938 -459 c109 -79 265 -161 370
-194 l30 -10 5 -367 5 -368 24 -19 c32 -26 67 -24 96 6 l25 24 0 336 0 336 38
-8 c51 -11 496 -7 555 5 l47 9 0 -339 0 -339 25 -24 c31 -32 69 -32 100 0 l25
24 0 359 0 359 73 28 c110 43 194 87 302 159 54 36 103 66 109 66 6 0 129 -39
273 -87 l261 -88 -143 -390 -144 -390 -1 -1532 0 -1533 -1200 0 -1200 0 0
1535 0 1535 -140 381 c-77 209 -140 384 -140 389 0 9 501 178 530 179 9 1 43
-18 75 -42z m2565 -427 c323 -716 453 -1945 364 -3437 l-7 -113 -178 0 c-99 0
-179 2 -179 4 0 2 -76 367 -170 811 l-170 807 0 707 0 707 125 338 c69 187
125 342 125 345 0 15 47 -73 90 -169z m-740 -3800 l0 -100 -950 0 -950 0 0
100 0 100 950 0 950 0 0 -100z"/>
<path d="M2180 1940 c-43 -10 -76 -48 -90 -103 -47 -188 -128 -306 -283 -415
-116 -81 -112 -69 -112 -322 0 -239 3 -251 68 -290 28 -18 51 -20 200 -20 165
0 168 0 192 25 32 31 33 74 2 103 -22 20 -33 22 -165 22 l-142 0 0 164 0 163
43 28 c144 96 280 277 323 434 l17 61 328 0 327 0 21 -69 c51 -166 179 -334
328 -429 l43 -27 0 -162 0 -163 -373 0 -374 0 -21 -23 c-29 -31 -28 -72 3
-102 l24 -25 393 0 c362 0 396 1 427 18 64 35 71 62 71 285 0 146 -4 206 -14
231 -10 23 -44 56 -110 104 -145 108 -225 223 -265 376 -23 91 -48 123 -107
136 -48 12 -706 11 -754 0z"/>
</g>
</svg>
